<?xml version="1.0" encoding="utf-8"?>
<!-- Generator: Adobe Illustrator 18.1.0, SVG Export Plug-In . SVG Version: 6.00 Build 0)  -->
<svg version="1.2" baseProfile="tiny" id="Réteg_1"
	 xmlns="http://www.w3.org/2000/svg" xmlns:xlink="http://www.w3.org/1999/xlink" x="0px" y="0px" viewBox="0 0 700 400"
	 xml:space="preserve">

	 <style>
#logo-logo,#logo-felirat{
	fill: #f18458;}
	 </style>

<g id="logo-logo">
	<g>
		<path d="M67.4,249.2c-13.3,0-26.3-2.3-38.7-6.8c-8-2.9-12.2-11.8-9.2-19.9c2.9-8,11.8-12.2,19.9-9.2
			c8.9,3.3,18.4,4.9,28,4.9c44.9,0,81.5-36.5,81.5-81.5c0-44.9-36.5-81.5-81.5-81.5c-15.5,0-30.6,4.4-43.6,12.6
			C16.6,72.5,7,70.4,2.4,63.2C-2.2,55.9,0,46.4,7.2,41.8c18-11.4,38.8-17.5,60.2-17.5c62,0,112.5,50.4,112.5,112.5
			S129.4,249.2,67.4,249.2z"/>
	</g>
	<g>
		<path d="M189.3,372.3H34.1c-8.6,0-15.5-6.9-15.5-15.5s6.9-15.5,15.5-15.5h105.4L1.6,61.7C-2.2,54,1,44.8,8.6,41
			c7.7-3.8,17-0.6,20.8,7L189.3,372.3z"/>
	</g>
</g>
<g id="logo-felirat">
	<path d="M269.8,135.3c0.1-4.2-0.1-7.8-0.6-10.7c-0.6-2.9-1.4-5.4-2.6-7.3c-1.2-1.9-2.7-3.3-4.5-4.2
		c-1.8-0.9-3.8-1.3-6.1-1.3c-4,0-8.1,1.6-12.3,4.9c-4.2,3.3-8.9,8.7-13.9,16.1v70.9h-27.6v-112h24.4l1,16.3c1.8-2.9,3.9-5.4,6.2-7.7
		c2.3-2.3,4.9-4.2,7.7-5.9c2.8-1.7,6-2.9,9.4-3.8c3.5-0.9,7.2-1.3,11.4-1.3c5.7,0,10.7,1,15,2.9c4.4,1.9,8,4.8,11,8.7
		c3,3.8,5.2,8.6,6.6,14.4c1.4,5.8,2,12.4,1.8,20H269.8z"/>
	<path d="M368.4,139.2c0,1.8-0.1,4.2-0.2,7.2c-0.1,2.9-0.3,5.7-0.5,8.3h-73.6c0,4.9,0.8,9.3,2.3,13
		c1.5,3.7,3.6,6.9,6.4,9.4c2.8,2.5,6.1,4.5,9.9,5.8c3.9,1.3,8.1,2,12.8,2c5.4,0,11.3-0.4,17.5-1.3c6.2-0.8,12.7-2.2,19.3-4.1v21.4
		c-2.9,0.8-6,1.5-9.4,2.2c-3.4,0.7-6.8,1.2-10.4,1.8c-3.5,0.5-7.1,0.9-10.7,1.2c-3.6,0.3-7.1,0.4-10.5,0.4c-8.5,0-16.2-1.2-22.9-3.6
		c-6.8-2.4-12.5-6-17.2-10.7c-4.7-4.7-8.3-10.6-10.8-17.6c-2.5-7-3.7-15.1-3.7-24.3c0-9.1,1.2-17.4,3.7-24.9
		c2.5-7.5,6-13.9,10.6-19.2c4.6-5.3,10.1-9.4,16.6-12.3c6.5-2.9,13.8-4.4,21.8-4.4c7.9,0,15,1.2,21.1,3.7
		c6.1,2.5,11.2,5.9,15.3,10.3c4.1,4.4,7.2,9.7,9.4,15.8C367.3,125.2,368.4,131.9,368.4,139.2z M341,135.3c0.1-4.4-0.5-8.2-1.7-11.5
		c-1.2-3.3-2.8-6-4.8-8.1c-2-2.1-4.4-3.7-7.1-4.7c-2.7-1-5.6-1.5-8.7-1.5c-6.8,0-12.3,2.3-16.6,6.8c-4.3,4.5-6.9,10.9-7.7,19.1H341z
		"/>
	<path d="M418.7,203.8v-73c0-12.3-4.6-18.4-13.7-18.4c-4.6,0-8.9,1.8-13.1,5.5c-4.2,3.7-8.5,8.7-13.2,15v70.9h-26.9
		v-112h23.3l0.7,16.5c2.3-2.9,4.6-5.5,7.1-7.8c2.5-2.4,5.1-4.4,8-6c2.9-1.7,6-2.9,9.3-3.8c3.3-0.9,7-1.3,11.1-1.3
		c5.7,0,10.7,0.9,15,2.8c4.3,1.9,7.8,4.5,10.7,7.9c2.9,3.4,5,7.5,6.4,12.3c1.4,4.8,2.2,10.2,2.2,16.1v75.2H418.7z"/>
	<path d="M535.9,146.9c0,8.8-1.3,16.9-3.7,24.2c-2.5,7.3-6.1,13.6-10.8,18.8c-4.7,5.2-10.5,9.3-17.3,12.1
		c-6.8,2.9-14.6,4.3-23.4,4.3c-8.3,0-15.7-1.2-22.3-3.6c-6.5-2.4-12.1-6-16.6-10.9c-4.6-4.8-8-10.8-10.5-18.1
		c-2.4-7.2-3.6-15.7-3.6-25.3c0-8.9,1.3-17,3.8-24.3s6.2-13.5,10.9-18.6c4.7-5.1,10.5-9.1,17.4-12c6.8-2.8,14.6-4.2,23.1-4.2
		c8.4,0,15.8,1.2,22.4,3.7c6.5,2.5,12.1,6.1,16.6,11c4.6,4.9,8,10.9,10.4,18C534.7,129.2,535.9,137.5,535.9,146.9z M507.9,147.6
		c0-11.6-2.2-20.3-6.6-26.2c-4.4-5.8-10.8-8.8-19.3-8.8c-4.7,0-8.7,0.9-12,2.8c-3.3,1.8-6,4.4-8.2,7.6c-2.1,3.2-3.7,6.9-4.7,11.2
		c-1,4.3-1.5,8.8-1.5,13.7c0,11.7,2.4,20.5,7.1,26.4c4.7,5.9,11.1,8.9,19.3,8.9c4.5,0,8.4-0.9,11.7-2.7c3.3-1.8,6-4.3,8-7.5
		c2.1-3.2,3.6-7,4.6-11.3C507.4,157.2,507.9,152.6,507.9,147.6z"/>
	<path d="M536.4,69h-31.6V48h59.2v134.8h32.3v20.9h-95.4v-20.9h35.5V69z"/>
	<path d="M582.1,112.7h-31.6V91.8h59.2v91.1H642v20.9h-95.4v-20.9h35.5V112.7z M611.9,61.1c0,2.4-0.4,4.7-1.3,6.8
		c-0.9,2.1-2.1,4-3.7,5.6c-1.6,1.6-3.4,2.8-5.6,3.7c-2.1,0.9-4.4,1.4-6.9,1.4c-2.5,0-4.8-0.5-7-1.4c-2.2-0.9-4-2.2-5.6-3.7
		c-1.6-1.6-2.8-3.4-3.7-5.6c-0.9-2.1-1.3-4.4-1.3-6.8c0-2.4,0.4-4.7,1.3-6.8c0.9-2.1,2.1-4,3.7-5.6c1.6-1.6,3.5-2.9,5.6-3.8
		c2.2-0.9,4.5-1.4,7-1.4c2.5,0,4.8,0.5,6.9,1.4c2.1,0.9,4,2.2,5.6,3.8c1.6,1.6,2.8,3.5,3.7,5.6C611.5,56.4,611.9,58.7,611.9,61.1z"
		/>
	<path d="M698.2,202.7c-4.9,1.1-9.7,2-14.7,2.6c-4.9,0.7-9.6,1-14,1c-7.3,0-13.7-0.8-19-2.3
		c-5.3-1.5-9.7-3.9-13.2-7.1c-3.5-3.2-6.1-7.2-7.7-12.1c-1.7-4.9-2.5-10.7-2.5-17.5v-54.7H597V91.8h30.1V63.1l27.6-7.2v35.8h43.5
		v20.9h-43.5v52.7c0,6.4,1.5,11.2,4.4,14.5c2.9,3.3,7.9,4.9,14.8,4.9c4.4,0,8.7-0.4,12.9-1.1c4.2-0.7,8-1.6,11.5-2.5V202.7z"/>
	<path d="M294,372.2V271.7c0-16.9-6.3-25.3-18.8-25.3c-6.3,0-12.3,2.5-18,7.6c-5.7,5.1-11.8,11.9-18.1,20.6v97.6h-37
		V218h32l0.9,22.8c3.1-3.9,6.4-7.5,9.8-10.8c3.4-3.2,7.1-6,11-8.3c3.9-2.3,8.2-4,12.7-5.2s9.7-1.8,15.3-1.8c7.9,0,14.8,1.3,20.6,3.9
		c5.9,2.6,10.8,6.2,14.7,10.9s6.9,10.4,8.9,17c2,6.6,3,14,3,22.2v103.5H294z"/>
	<path d="M456.7,293.9c0,12.1-1.7,23.2-5.2,33.3c-3.4,10.1-8.4,18.7-14.9,25.9c-6.5,7.2-14.4,12.7-23.8,16.7
		s-20.1,5.9-32.2,5.9c-11.4,0-21.6-1.7-30.7-5c-9-3.3-16.6-8.3-22.9-14.9c-6.3-6.6-11.1-14.9-14.4-24.9c-3.3-10-5-21.6-5-34.8
		c0-12.2,1.7-23.4,5.2-33.4c3.5-10,8.5-18.6,15-25.6c6.5-7.1,14.5-12.6,23.9-16.5c9.4-3.9,20-5.8,31.9-5.8c11.5,0,21.8,1.7,30.8,5.1
		c9,3.4,16.6,8.4,22.9,15.1c6.3,6.7,11.1,14.9,14.3,24.8C455.1,269.5,456.7,280.9,456.7,293.9z M418.2,294.8c0-16-3-28-9-36
		c-6-8-14.9-12.1-26.6-12.1c-6.5,0-12,1.3-16.5,3.8c-4.6,2.5-8.3,6-11.2,10.4c-2.9,4.4-5.1,9.5-6.4,15.4c-1.4,5.9-2,12.1-2,18.8
		c0,16.1,3.2,28.2,9.7,36.3c6.5,8.1,15.3,12.2,26.6,12.2c6.2,0,11.5-1.2,16.1-3.7c4.6-2.5,8.2-5.9,11.1-10.3c2.8-4.4,5-9.6,6.4-15.6
		C417.5,308.1,418.2,301.7,418.2,294.8z"/>
	<path d="M533,372.2h-42.6L429.2,218h41.3l32,87.4l9.6,28.2l9.4-27l32.3-88.6h39.8L533,372.2z"/>
	<path d="M668.3,372.2l-0.9-20.2c-3.2,3.4-6.6,6.6-10.2,9.5c-3.5,2.9-7.4,5.4-11.7,7.5c-4.2,2.1-8.9,3.8-13.9,4.9
		c-5,1.2-10.5,1.7-16.5,1.7c-7.9,0-14.8-1.2-20.8-3.5c-6-2.3-11-5.6-15-9.7c-4-4.1-7.1-9.2-9.2-15c-2.1-5.9-3.1-12.3-3.1-19.4
		c0-7.3,1.5-14,4.6-20.2c3.1-6.2,7.8-11.5,14.1-15.9c6.3-4.5,14.2-7.9,23.7-10.5c9.5-2.5,20.6-3.8,33.3-3.8H663v-9.3
		c0-3.9-0.6-7.5-1.7-10.7c-1.1-3.2-2.9-5.9-5.4-8.1c-2.5-2.2-5.7-3.9-9.6-5.2c-3.9-1.2-8.8-1.8-14.6-1.8c-9.1,0-18.1,1-26.9,3.1
		c-8.9,2.1-17.4,5-25.7,8.7v-29.6c7.4-2.9,15.9-5.4,25.6-7.3c9.7-1.9,19.7-2.9,30.1-2.9c11.4,0,21.2,1.1,29.4,3.3
		c8.2,2.2,14.9,5.4,20.3,9.8c5.3,4.4,9.2,9.8,11.8,16.3c2.5,6.5,3.8,14.1,3.8,22.8v105.3H668.3z M663,304.1h-22.6
		c-6.3,0-11.6,0.6-15.9,1.8c-4.4,1.2-7.9,2.9-10.6,5s-4.7,4.6-6,7.4c-1.3,2.8-1.9,5.7-1.9,8.9c0,6.3,2,11.1,6.1,14.3
		c4,3.3,9.6,4.9,16.5,4.9c5.2,0,10.5-1.9,16.1-5.6c5.6-3.7,11.7-9.1,18.4-16.1V304.1z"/>
</g>
</svg>
