<?xml version="1.0" encoding="utf-8"?>
<!-- Generator: Adobe Illustrator 18.1.0, SVG Export Plug-In . SVG Version: 6.00 Build 0)  -->
<svg version="1.2" baseProfile="tiny" id="Réteg_1"
	 xmlns="http://www.w3.org/2000/svg" xmlns:xlink="http://www.w3.org/1999/xlink" x="0px" y="0px" viewBox="0 0 700 400"
	 xml:space="preserve">
	 
	 <linearGradient id="lg" x1="0.5" y1="1" x2="0.5" y2="0">
    
          <stop offset="100%" stop-opacity="1" stop-color="#f18458">
            <animate attributeName="offset" values="0;0;1" dur="10s" begin="0s"/>
          </stop>
          <stop offset="100%" stop-opacity="0" stop-color="#f18458">
            <animate attributeName="offset" values="0;0;1" dur="10s"  begin="0s"/>
          </stop>
      </linearGradient>
	  
<g id="logo-logo-bg">
	<g>
		<g>
			<g>
				<path fill="#FFFFFF" stroke="#FFFFFF" stroke-miterlimit="10" d="M90.7,248.1c-12.2,0-24.2-2.1-35.6-6.3
					c-7.4-2.7-11.2-10.9-8.5-18.3c2.7-7.4,10.9-11.2,18.3-8.5c8.2,3,16.9,4.5,25.8,4.5c41.4,0,75-33.7,75-75c0-41.4-33.7-75-75-75
					c-14.3,0-28.2,4-40.1,11.6c-6.7,4.2-15.5,2.3-19.7-4.4c-4.2-6.7-2.3-15.5,4.4-19.7C51.8,46.5,71,40.9,90.7,40.9
					c57.1,0,103.6,46.5,103.6,103.6S147.8,248.1,90.7,248.1z"/>
				<path fill="#FFFFFF" stroke="#FFFFFF" stroke-miterlimit="10" d="M90.7,252.7c-12.8,0-25.3-2.2-37.2-6.6
					c-4.7-1.7-8.5-5.2-10.6-9.8c-2.1-4.6-2.3-9.7-0.6-14.4c2.7-7.4,9.8-12.4,17.7-12.4c2.2,0,4.4,0.4,6.5,1.2
					c7.7,2.8,15.9,4.3,24.2,4.3c38.8,0,70.4-31.6,70.4-70.4c0-38.8-31.6-70.4-70.4-70.4C77.3,74.1,64.3,77.9,53,85
					c-3,1.9-6.5,2.9-10.1,2.9c-6.5,0-12.5-3.3-16-8.8c-2.7-4.3-3.6-9.3-2.5-14.2c1.1-4.9,4-9.1,8.3-11.8
					c17.3-11,37.3-16.8,57.9-16.8c59.7,0,108.2,48.5,108.2,108.2S150.3,252.7,90.7,252.7z M60,218.7c-4,0-7.7,2.6-9.1,6.4
					c-0.9,2.4-0.8,5.1,0.3,7.4c1.1,2.3,3,4.1,5.4,5c10.9,4,22.3,6,34,6c54.6,0,99-44.4,99-99s-44.4-99-99-99
					c-18.8,0-37.2,5.3-53,15.4c-2.2,1.4-3.7,3.5-4.3,6.1c-0.6,2.5-0.1,5.1,1.3,7.3c1.8,2.8,4.8,4.5,8.2,4.5c1.8,0,3.6-0.5,5.2-1.5
					c12.7-8.1,27.5-12.3,42.6-12.3c43.9,0,79.6,35.7,79.6,79.6s-35.7,79.6-79.6,79.6c-9.4,0-18.6-1.6-27.4-4.8
					C62.2,218.9,61.1,218.7,60,218.7z"/>
			</g>
		</g>
	</g>
	<g>
		<g>
			<g>
				<path fill="#FFFFFF" stroke="#FFFFFF" stroke-miterlimit="10" d="M202.9,361.4H60c-7.9,0-14.3-6.4-14.3-14.3
					c0-7.9,6.4-14.3,14.3-14.3H157L30.1,75.4c-3.5-7.1-0.6-15.6,6.5-19.1c7.1-3.5,15.6-0.6,19.1,6.5L202.9,361.4z"/>
				<path fill="#FFFFFF" stroke="#FFFFFF" stroke-miterlimit="10" d="M202.9,366H60c-10.4,0-18.9-8.5-18.9-18.9
					c0-10.4,8.5-18.9,18.9-18.9h89.6L26,77.4c-4.6-9.3-0.8-20.7,8.6-25.3c2.6-1.3,5.4-2,8.3-2c7.2,0,13.7,4,16.9,10.5l147.3,298.7
					c0.7,1.4,0.6,3.1-0.2,4.5C206,365.2,204.5,366,202.9,366z M60,337.5c-5.3,0-9.7,4.3-9.7,9.7c0,5.3,4.3,9.7,9.7,9.7h135.6
					l-144-292c-1.6-3.3-5-5.4-8.7-5.4c-1.5,0-2.9,0.3-4.3,1c-4.8,2.4-6.8,8.2-4.4,13l126.9,257.5c0.7,1.4,0.6,3.1-0.2,4.5
					c-0.8,1.4-2.3,2.2-3.9,2.2H60z"/>
			</g>
		</g>
	</g>
</g>
<g id="logo-felirat-bg">
	<g>
		<g>
			<path fill="#FFFFFF" stroke="#FFFFFF" stroke-miterlimit="10" d="M273.6,143.2c0.1-3.9-0.1-7.1-0.6-9.8c-0.5-2.7-1.3-4.9-2.4-6.7
				c-1.1-1.8-2.5-3-4.1-3.9c-1.6-0.8-3.5-1.2-5.6-1.2c-3.7,0-7.4,1.5-11.3,4.5c-3.9,3-8.2,8-12.8,14.9v65.3h-25.4V103.1h22.4l0.9,15
				c1.7-2.6,3.6-5,5.7-7.1c2.1-2.1,4.5-3.9,7.1-5.4c2.6-1.5,5.5-2.7,8.7-3.5c3.2-0.8,6.7-1.2,10.5-1.2c5.2,0,9.8,0.9,13.9,2.7
				c4,1.8,7.4,4.5,10.2,8c2.7,3.5,4.8,7.9,6.1,13.3c1.3,5.3,1.9,11.5,1.7,18.4H273.6z"/>
			<path fill="#FFFFFF" stroke="#FFFFFF" stroke-miterlimit="10" d="M236.8,210.8h-25.4c-2.5,0-4.6-2.1-4.6-4.6V103.1
				c0-2.5,2.1-4.6,4.6-4.6h22.4c2.4,0,4.4,1.9,4.6,4.3l0.2,3.6c2-1.8,4.3-3.4,6.6-4.8c3-1.7,6.3-3.1,9.9-4c3.5-0.9,7.4-1.4,11.6-1.4
				c5.8,0,11.1,1,15.7,3.1c4.7,2.1,8.7,5.2,11.9,9.3c3.1,4,5.5,9.1,6.9,15c1.4,5.7,2,12.3,1.8,19.7c-0.1,2.5-2.1,4.5-4.6,4.5h-24.9
				c-1.2,0-2.4-0.5-3.3-1.4c-0.9-0.9-1.3-2.1-1.3-3.4c0.1-3.5,0-6.5-0.5-8.8c-0.4-2.1-1-3.8-1.8-5.1c-0.7-1-1.4-1.8-2.3-2.2
				c-1-0.5-2.1-0.7-3.5-0.7c-2.6,0-5.5,1.2-8.5,3.6c-3.3,2.5-7,6.8-11.1,12.7v63.9C241.4,208.8,239.3,210.8,236.8,210.8z M216,201.6
				h16.2v-60.7c0-0.9,0.3-1.8,0.8-2.6c5-7.4,9.5-12.6,13.8-15.9c4.7-3.6,9.5-5.5,14.1-5.5c2.8,0,5.4,0.6,7.6,1.7
				c2.4,1.2,4.4,3,5.9,5.5c1.4,2.3,2.5,5.1,3.1,8.3c0.3,1.8,0.6,3.9,0.6,6.1h15.7c-0.1-4.7-0.6-9-1.6-12.7
				c-1.2-4.7-2.9-8.5-5.3-11.5c-2.3-2.9-5-5.1-8.4-6.6c-3.4-1.5-7.4-2.3-12-2.3c-3.4,0-6.5,0.4-9.3,1.1c-2.8,0.7-5.3,1.7-7.5,3
				c-2.3,1.3-4.3,2.9-6.2,4.7c-1.9,1.9-3.6,4-5.1,6.3c-1.1,1.7-3.1,2.5-5,2c-1.9-0.5-3.3-2.2-3.4-4.2l-0.7-10.7H216V201.6z"/>
		</g>
	</g>
	<g>
		<g>
			<path fill="#FFFFFF" stroke="#FFFFFF" stroke-miterlimit="10" d="M364.5,146.7c0,1.7-0.1,3.9-0.2,6.6c-0.1,2.7-0.3,5.2-0.5,7.6
				H296c0,4.5,0.7,8.5,2.1,12c1.4,3.5,3.4,6.3,5.9,8.7s5.6,4.1,9.1,5.3c3.6,1.2,7.5,1.8,11.8,1.8c5,0,10.4-0.4,16.1-1.2
				c5.7-0.8,11.7-2,17.8-3.8v19.7c-2.6,0.7-5.5,1.4-8.6,2c-3.1,0.6-6.3,1.2-9.5,1.6c-3.2,0.5-6.5,0.8-9.8,1.1
				c-3.3,0.2-6.5,0.4-9.6,0.4c-7.9,0-14.9-1.1-21.1-3.4c-6.2-2.2-11.5-5.5-15.8-9.9c-4.3-4.4-7.6-9.8-10-16.2
				c-2.3-6.4-3.5-13.9-3.5-22.3c0-8.4,1.2-16,3.5-22.9c2.3-6.9,5.5-12.8,9.7-17.7c4.2-4.9,9.3-8.7,15.3-11.4c6-2.7,12.7-4,20.1-4
				c7.3,0,13.8,1.1,19.4,3.4c5.6,2.3,10.3,5.4,14.1,9.5c3.8,4.1,6.7,8.9,8.6,14.5C363.5,133.9,364.5,140,364.5,146.7z M339.3,143.2
				c0.1-4.1-0.4-7.6-1.5-10.6c-1.1-3-2.6-5.5-4.4-7.5c-1.9-2-4-3.4-6.5-4.4c-2.5-0.9-5.1-1.4-8-1.4c-6.2,0-11.3,2.1-15.3,6.2
				c-4,4.2-6.4,10-7.1,17.6H339.3z"/>
			<path fill="#FFFFFF" stroke="#FFFFFF" stroke-miterlimit="10" d="M321.2,213.2c-8.3,0-16-1.2-22.7-3.6c-6.8-2.5-12.8-6.2-17.6-11
				c-4.8-4.8-8.5-10.8-11-17.9c-2.5-6.9-3.7-14.9-3.7-23.9c0-8.9,1.2-17,3.7-24.4c2.5-7.4,6-13.9,10.6-19.2
				c4.6-5.4,10.3-9.6,16.9-12.6c6.6-2.9,13.9-4.4,21.9-4.4c7.9,0,15,1.3,21.1,3.7c6.2,2.5,11.5,6.1,15.8,10.6
				c4.2,4.5,7.4,9.9,9.6,16.1c2.1,6.1,3.2,12.8,3.2,20c0,1.7-0.1,4-0.2,6.8c-0.1,2.8-0.3,5.4-0.5,7.8c-0.2,2.4-2.2,4.2-4.6,4.2
				h-62.9c0.3,2.1,0.8,4,1.5,5.7c1.1,2.8,2.7,5.1,4.7,7c2.1,1.9,4.6,3.4,7.5,4.4c3.1,1,6.5,1.6,10.3,1.6c4.8,0,10-0.4,15.5-1.1
				c5.5-0.7,11.3-2,17.2-3.7c1.4-0.4,2.9-0.1,4,0.8c1.2,0.9,1.8,2.2,1.8,3.7v19.7c0,2.1-1.4,3.9-3.4,4.4c-2.7,0.8-5.8,1.5-9,2.1
				c-3.1,0.6-6.4,1.2-9.8,1.7c-3.3,0.5-6.8,0.9-10.2,1.1C327.8,213,324.4,213.2,321.2,213.2z M319.4,105.4c-6.7,0-12.8,1.2-18.2,3.6
				c-5.3,2.4-9.9,5.8-13.7,10.2c-3.8,4.4-6.8,9.9-8.9,16.1c-2.1,6.4-3.2,13.6-3.2,21.4c0,7.9,1.1,14.9,3.2,20.8
				c2.1,5.8,5,10.6,8.9,14.5c3.8,3.9,8.6,6.8,14.1,8.8c5.7,2,12.3,3.1,19.6,3.1c3,0,6.1-0.1,9.3-0.3c3.2-0.2,6.4-0.6,9.5-1
				c3.2-0.5,6.3-1,9.3-1.6c1.7-0.3,3.4-0.7,4.9-1.1v-10.2c-4.3,1-8.5,1.8-12.6,2.4c-5.9,0.8-11.5,1.2-16.7,1.2
				c-4.8,0-9.3-0.7-13.3-2.1c-4.1-1.4-7.8-3.5-10.8-6.3c-3-2.8-5.4-6.3-7-10.4c-1.6-4-2.4-8.6-2.4-13.7c0-2.5,2.1-4.6,4.6-4.6h63.5
				c0.1-1,0.1-2.1,0.1-3.2c0.1-2.6,0.1-4.8,0.1-6.4c0-6.1-0.9-11.9-2.7-17c-1.7-5-4.3-9.3-7.6-12.9c-3.3-3.5-7.5-6.4-12.5-8.4
				C332,106.5,326.1,105.4,319.4,105.4z M339.3,147.8h-42.8c-1.3,0-2.5-0.5-3.4-1.5c-0.9-1-1.3-2.2-1.2-3.5
				c0.8-8.6,3.7-15.4,8.4-20.4c4.9-5.1,11.2-7.7,18.7-7.7c3.4,0,6.6,0.6,9.6,1.7c3.1,1.2,5.9,3,8.2,5.5c2.3,2.4,4.1,5.5,5.4,9.1
				c1.3,3.5,1.9,7.6,1.8,12.2C343.8,145.8,341.8,147.8,339.3,147.8z M301.8,138.6h32.6c-0.2-1.6-0.5-3.1-1-4.4
				c-0.9-2.4-2-4.4-3.4-5.9c-1.4-1.5-3-2.5-4.8-3.2c-1.9-0.7-4.1-1.1-6.3-1.1c-5,0-8.9,1.6-12,4.8
				C304.5,131.2,302.8,134.5,301.8,138.6z"/>
		</g>
	</g>
	<g>
		<g>
			<path fill="#FFFFFF" stroke="#FFFFFF" stroke-miterlimit="10" d="M410.8,206.2V139c0-11.3-4.2-17-12.6-17c-4.2,0-8.2,1.7-12,5.1
				c-3.8,3.4-7.9,8-12.1,13.8v65.3h-24.8V103.1h21.4l0.6,15.2c2.1-2.6,4.3-5,6.5-7.2c2.3-2.2,4.7-4,7.4-5.5s5.5-2.7,8.5-3.5
				c3-0.8,6.5-1.2,10.3-1.2c5.3,0,9.9,0.9,13.8,2.6c3.9,1.7,7.2,4.2,9.8,7.3c2.6,3.1,4.6,6.9,5.9,11.4c1.3,4.4,2,9.4,2,14.9v69.2
				H410.8z"/>
			<path fill="#FFFFFF" stroke="#FFFFFF" stroke-miterlimit="10" d="M435.6,210.8h-24.8c-2.5,0-4.6-2.1-4.6-4.6V139
				c0-12.4-5.4-12.4-8-12.4c-3.1,0-6,1.3-9,3.9c-3.3,2.9-6.9,6.9-10.6,11.9v63.8c0,2.5-2.1,4.6-4.6,4.6h-24.8
				c-2.5,0-4.6-2.1-4.6-4.6V103.1c0-2.5,2.1-4.6,4.6-4.6h21.4c2.5,0,4.5,2,4.6,4.4l0.2,4.1c2.3-2.1,4.8-3.9,7.5-5.5
				c3-1.7,6.2-3.1,9.6-4c3.4-0.9,7.3-1.4,11.4-1.4c5.9,0,11.2,1,15.7,3c4.6,2,8.4,4.9,11.5,8.6c3,3.6,5.3,8,6.8,13
				c1.4,4.8,2.2,10.3,2.2,16.2v69.2C440.2,208.8,438.2,210.8,435.6,210.8z M415.5,201.6H431V137c0-5-0.6-9.6-1.8-13.6
				c-1.1-3.8-2.8-7.1-5.1-9.7c-2.2-2.6-4.9-4.6-8.2-6.1c-3.3-1.5-7.3-2.2-12-2.2c-3.4,0-6.4,0.4-9.1,1.1c-2.6,0.7-5.1,1.7-7.4,3
				c-2.3,1.3-4.5,3-6.5,4.9c-2.1,2-4.2,4.3-6.1,6.7c-1.2,1.5-3.2,2.1-5,1.5c-1.8-0.6-3.1-2.3-3.2-4.2l-0.4-10.8h-12.4v93.9h15.6
				v-60.7c0-1,0.3-1.9,0.9-2.7c4.4-6.1,8.7-10.9,12.8-14.5c4.7-4.1,9.7-6.2,15.1-6.2c6.4,0,17.2,2.8,17.2,21.6V201.6z"/>
		</g>
	</g>
	<g>
		<g>
			<path fill="#FFFFFF" stroke="#FFFFFF" stroke-miterlimit="10" d="M518.8,153.8c0,8.1-1.2,15.6-3.5,22.3
				c-2.3,6.7-5.6,12.5-10,17.3c-4.3,4.8-9.6,8.5-15.9,11.2c-6.3,2.6-13.5,4-21.5,4c-7.6,0-14.5-1.1-20.5-3.4
				c-6-2.2-11.1-5.6-15.3-10c-4.2-4.4-7.4-10-9.6-16.7c-2.2-6.7-3.4-14.4-3.4-23.3c0-8.2,1.2-15.6,3.5-22.3
				c2.3-6.7,5.7-12.4,10.1-17.2c4.4-4.7,9.7-8.4,16-11c6.3-2.6,13.4-3.9,21.3-3.9c7.7,0,14.6,1.1,20.6,3.4c6,2.3,11.1,5.6,15.3,10.1
				c4.2,4.5,7.4,10,9.6,16.6C517.7,137.5,518.8,145.2,518.8,153.8z M493,154.4c0-10.7-2-18.7-6-24.1c-4-5.4-10-8.1-17.8-8.1
				c-4.3,0-8,0.8-11.1,2.5c-3,1.7-5.6,4-7.5,7c-2,2.9-3.4,6.4-4.3,10.3c-0.9,3.9-1.4,8.1-1.4,12.6c0,10.8,2.2,18.9,6.5,24.3
				c4.3,5.4,10.3,8.2,17.8,8.2c4.1,0,7.7-0.8,10.8-2.5c3-1.7,5.5-4,7.4-6.9c1.9-2.9,3.3-6.4,4.3-10.4C492.5,163.3,493,159,493,154.4
				z"/>
			<path fill="#FFFFFF" stroke="#FFFFFF" stroke-miterlimit="10" d="M467.9,213.2c-8.2,0-15.6-1.2-22.1-3.6
				c-6.7-2.5-12.4-6.2-17.1-11.2c-4.6-4.9-8.2-11.1-10.7-18.4c-2.4-7.1-3.6-15.4-3.6-24.8c0-8.7,1.3-16.7,3.8-23.9
				c2.5-7.3,6.2-13.6,11-18.8c4.8-5.2,10.7-9.3,17.6-12.2c6.8-2.8,14.6-4.3,23.1-4.3c8.2,0,15.7,1.2,22.2,3.7
				c6.7,2.5,12.4,6.3,17.1,11.3c4.6,4.9,8.2,11.1,10.6,18.3c2.3,7,3.5,15.2,3.5,24.4c0,8.6-1.2,16.6-3.7,23.8
				c-2.5,7.3-6.2,13.7-10.9,18.9c-4.8,5.3-10.7,9.4-17.6,12.3C484.4,211.7,476.5,213.2,467.9,213.2z M469.9,105.4
				c-7.3,0-13.9,1.2-19.6,3.6c-5.6,2.3-10.5,5.7-14.4,9.9c-3.9,4.2-7,9.5-9.1,15.6c-2.2,6.2-3.2,13.2-3.2,20.8
				c0,8.3,1,15.7,3.1,21.8c2,6,4.9,11,8.6,14.9c3.7,3.9,8.3,6.9,13.6,8.8c5.5,2,11.8,3.1,18.9,3.1c7.4,0,14-1.2,19.7-3.6
				c5.6-2.4,10.4-5.7,14.3-10c3.9-4.3,6.9-9.6,9-15.7c2.1-6.2,3.2-13.2,3.2-20.8c0-8.1-1-15.3-3.1-21.4c-2-5.9-4.9-10.9-8.6-14.9
				c-3.7-3.9-8.3-6.9-13.6-8.9C483.5,106.5,477.1,105.4,469.9,105.4z M469.1,191.7c-9,0-16.1-3.3-21.4-9.9c-5-6.3-7.5-15.4-7.5-27.2
				c0-4.8,0.5-9.4,1.5-13.6c1-4.5,2.7-8.4,5-11.8c2.4-3.5,5.4-6.4,9.1-8.4c3.7-2.1,8.2-3.1,13.3-3.1c9.3,0,16.6,3.3,21.5,9.9
				c4.7,6.3,7,15,7,26.9c0,4.9-0.5,9.6-1.5,14c-1.1,4.5-2.7,8.5-4.9,11.8c-2.3,3.6-5.4,6.4-9.1,8.5
				C478.4,190.7,474,191.7,469.1,191.7z M469.1,126.9c-3.5,0-6.5,0.7-8.8,2c-2.4,1.3-4.4,3.1-5.9,5.5c-1.6,2.5-2.9,5.4-3.7,8.8
				c-0.8,3.6-1.3,7.5-1.3,11.5c0,9.6,1.8,16.9,5.5,21.5c3.4,4.3,8.1,6.4,14.2,6.4c3.3,0,6.2-0.6,8.6-1.9c2.4-1.3,4.3-3,5.7-5.4
				c1.6-2.5,2.8-5.5,3.7-9c0.9-3.6,1.3-7.6,1.3-11.8c0-9.6-1.7-16.8-5.1-21.4C480.1,128.9,475.5,126.9,469.1,126.9z"/>
		</g>
	</g>
	<g>
		<g>
			<path fill="#FFFFFF" stroke="#FFFFFF" stroke-miterlimit="10" d="M519.2,82H490V62.8h54.5v124.2h29.7v19.3h-87.8v-19.3h32.7V82z"
				/>
			<path fill="#FFFFFF" stroke="#FFFFFF" stroke-miterlimit="10" d="M574.3,210.8h-87.8c-2.5,0-4.6-2.1-4.6-4.6v-19.3
				c0-2.5,2.1-4.6,4.6-4.6h28.1V86.7H490c-2.5,0-4.6-2.1-4.6-4.6V62.8c0-2.5,2.1-4.6,4.6-4.6h54.5c2.5,0,4.6,2.1,4.6,4.6v119.6h25.1
				c2.5,0,4.6,2.1,4.6,4.6v19.3C578.9,208.8,576.8,210.8,574.3,210.8z M491.1,201.6h78.6v-10.1h-25.1c-2.5,0-4.6-2.1-4.6-4.6V67.4
				h-45.3v10.1h24.5c2.5,0,4.6,2.1,4.6,4.6v104.9c0,2.5-2.1,4.6-4.6,4.6h-28.1V201.6z"/>
		</g>
	</g>
	<g>
		<g>
			<path fill="#FFFFFF" stroke="#FFFFFF" stroke-miterlimit="10" d="M561.3,122.4h-29.1v-19.3h54.5v83.9h29.7v19.3h-87.8v-19.3h32.7
				V122.4z M588.8,74.8c0,2.2-0.4,4.3-1.2,6.3c-0.8,2-1.9,3.7-3.4,5.1c-1.5,1.5-3.2,2.6-5.1,3.5c-2,0.8-4.1,1.3-6.4,1.3
				c-2.3,0-4.5-0.4-6.4-1.3c-2-0.8-3.7-2-5.2-3.5c-1.5-1.5-2.6-3.2-3.4-5.1c-0.8-2-1.2-4.1-1.2-6.3s0.4-4.3,1.2-6.3
				c0.8-2,1.9-3.7,3.4-5.2c1.5-1.5,3.2-2.7,5.2-3.5c2-0.8,4.1-1.3,6.4-1.3c2.3,0,4.4,0.4,6.4,1.3c2,0.8,3.7,2,5.1,3.5
				c1.5,1.5,2.6,3.2,3.4,5.2C588.4,70.5,588.8,72.6,588.8,74.8z"/>
			<path fill="#FFFFFF" stroke="#FFFFFF" stroke-miterlimit="10" d="M616.5,210.8h-87.8c-2.5,0-4.6-2.1-4.6-4.6v-19.3
				c0-2.5,2.1-4.6,4.6-4.6h28.1V127h-24.5c-2.5,0-4.6-2.1-4.6-4.6v-19.3c0-2.5,2.1-4.6,4.6-4.6h54.5c2.5,0,4.6,2.1,4.6,4.6v79.3
				h25.1c2.5,0,4.6,2.1,4.6,4.6v19.3C621.1,208.8,619,210.8,616.5,210.8z M533.3,201.6h78.6v-10.1h-25.1c-2.5,0-4.6-2.1-4.6-4.6
				v-79.3h-45.3v10.1h24.5c2.5,0,4.6,2.1,4.6,4.6v64.6c0,2.5-2.1,4.6-4.6,4.6h-28.1V201.6z M572.6,95.6c-2.9,0-5.7-0.6-8.2-1.6
				c-2.5-1.1-4.8-2.6-6.6-4.4c-1.9-1.9-3.4-4.1-4.4-6.6c-1-2.5-1.6-5.2-1.6-8.1c0-2.8,0.5-5.5,1.6-8.1c1-2.5,2.5-4.7,4.4-6.6
				c1.9-1.9,4.1-3.4,6.7-4.5c2.6-1.1,5.3-1.6,8.2-1.6c2.9,0,5.7,0.6,8.2,1.6c2.5,1.1,4.7,2.6,6.6,4.5c1.9,1.9,3.3,4.1,4.4,6.6
				c1,2.5,1.6,5.2,1.6,8.1c0,2.8-0.5,5.5-1.6,8.1c-1,2.5-2.5,4.7-4.4,6.6c-1.9,1.9-4.1,3.4-6.6,4.4C578.3,95,575.5,95.6,572.6,95.6z
				 M572.6,63.2c-1.7,0-3.2,0.3-4.7,0.9c-1.4,0.6-2.6,1.4-3.7,2.5c-1.1,1.1-1.8,2.3-2.4,3.7c-0.6,1.4-0.9,2.9-0.9,4.5
				c0,1.6,0.3,3.1,0.9,4.5c0.6,1.4,1.4,2.6,2.4,3.6c1,1,2.3,1.9,3.7,2.5c1.4,0.6,3,0.9,4.7,0.9c1.7,0,3.2-0.3,4.6-0.9
				c1.4-0.6,2.6-1.4,3.7-2.5c1-1,1.8-2.2,2.4-3.6c0.6-1.4,0.9-2.9,0.9-4.5c0-1.6-0.3-3.1-0.9-4.5c-0.6-1.4-1.4-2.6-2.4-3.7
				c-1-1.1-2.2-1.9-3.7-2.5C575.8,63.5,574.3,63.2,572.6,63.2z"/>
		</g>
	</g>
	<g>
		<g>
			<path fill="#FFFFFF" stroke="#FFFFFF" stroke-miterlimit="10" d="M668.2,205.2c-4.5,1-9,1.8-13.5,2.4c-4.5,0.6-8.8,0.9-12.9,0.9
				c-6.8,0-12.6-0.7-17.5-2.1c-4.9-1.4-9-3.6-12.2-6.5c-3.2-2.9-5.6-6.6-7.1-11.1c-1.5-4.5-2.3-9.9-2.3-16.1v-50.4H575v-19.3h27.7
				V76.7l25.4-6.6v33h40.1v19.3h-40.1v48.5c0,5.9,1.4,10.3,4.1,13.4c2.7,3,7.2,4.5,13.6,4.5c4.1,0,8-0.3,11.9-1
				c3.9-0.7,7.4-1.5,10.6-2.3V205.2z"/>
			<path fill="#FFFFFF" stroke="#FFFFFF" stroke-miterlimit="10" d="M641.8,213.2c-7.2,0-13.5-0.8-18.8-2.3
				c-5.6-1.6-10.3-4.1-14-7.5c-3.8-3.4-6.6-7.8-8.4-13.1c-1.7-5-2.5-10.9-2.5-17.6V127H575c-2.5,0-4.6-2.1-4.6-4.6v-19.3
				c0-2.5,2.1-4.6,4.6-4.6h23.1V76.7c0-2.1,1.4-3.9,3.4-4.5l25.4-6.6c1.4-0.4,2.8-0.1,4,0.8c1.1,0.9,1.8,2.2,1.8,3.6v28.4h35.5
				c2.5,0,4.6,2.1,4.6,4.6v19.3c0,2.5-2.1,4.6-4.6,4.6h-35.5v43.9c0,4.7,1,8.1,2.9,10.3c1.8,2,5.2,3,10.2,3c3.8,0,7.5-0.3,11.1-0.9
				c3.7-0.6,7.1-1.4,10.1-2.2c1.4-0.4,2.9-0.1,4,0.8c1.1,0.9,1.8,2.2,1.8,3.7v19.8c0,2.1-1.5,4-3.6,4.5c-4.6,1-9.3,1.9-13.9,2.5
				C650.6,212.8,646.1,213.2,641.8,213.2z M579.6,117.8h23.1c2.5,0,4.6,2.1,4.6,4.6v50.4c0,5.7,0.7,10.6,2,14.6
				c1.3,3.8,3.2,6.8,5.8,9.2c2.7,2.4,6.2,4.3,10.4,5.5c4.5,1.3,9.9,2,16.2,2c3.8,0,8-0.3,12.3-0.9c3.2-0.4,6.4-1,9.5-1.6v-10.2
				c-1.7,0.4-3.4,0.7-5.2,1c-4.1,0.7-8.4,1.1-12.7,1.1c-7.7,0-13.4-2-17-6c-3.5-3.9-5.2-9.4-5.2-16.4v-48.5c0-2.5,2.1-4.6,4.6-4.6
				h35.5v-10.1h-35.5c-2.5,0-4.6-2.1-4.6-4.6V76l-16.2,4.2v22.8c0,2.5-2.1,4.6-4.6,4.6h-23.1V117.8z"/>
		</g>
	</g>
	<g>
		<g>
			<path fill="#FFFFFF" stroke="#FFFFFF" stroke-miterlimit="10" d="M296,361.3v-92.5c0-15.6-5.8-23.3-17.3-23.3
				c-5.8,0-11.3,2.3-16.6,7c-5.3,4.7-10.8,11-16.7,19v89.9h-34.1v-142h29.5l0.8,21c2.9-3.6,5.9-6.9,9-9.9c3.1-3,6.5-5.5,10.1-7.6
				c3.6-2.1,7.5-3.7,11.7-4.8c4.2-1.1,8.9-1.7,14.1-1.7c7.3,0,13.6,1.2,19,3.6c5.4,2.4,9.9,5.7,13.6,10.1c3.6,4.3,6.4,9.6,8.2,15.7
				c1.8,6.1,2.7,12.9,2.7,20.5v95.3H296z"/>
			<path fill="#FFFFFF" stroke="#FFFFFF" stroke-miterlimit="10" d="M330.1,365.9H296c-2.5,0-4.6-2.1-4.6-4.6v-92.5
				c0-16.6-6.8-18.7-12.7-18.7c-4.7,0-9.1,1.9-13.5,5.8c-4.7,4.2-9.8,9.9-15.1,17.1v88.4c0,2.5-2.1,4.6-4.6,4.6h-34.1
				c-2.5,0-4.6-2.1-4.6-4.6v-142c0-2.5,2.1-4.6,4.6-4.6h29.5c2.5,0,4.5,2,4.6,4.4l0.4,9.5c0.6-0.6,1.1-1.1,1.7-1.7
				c3.4-3.2,7.1-6,11-8.3c4-2.3,8.3-4.1,12.9-5.3c4.6-1.2,9.7-1.8,15.3-1.8c7.9,0,14.9,1.3,20.9,4c6,2.7,11.2,6.5,15.2,11.3
				c4,4.8,7.1,10.6,9.1,17.3c1.9,6.5,2.9,13.8,2.9,21.8v95.3C334.7,363.9,332.6,365.9,330.1,365.9z M300.6,356.7h24.9V266
				c0-7.1-0.9-13.5-2.5-19.2c-1.6-5.5-4.1-10.2-7.3-14c-3.2-3.8-7.2-6.7-11.9-8.8c-4.8-2.1-10.6-3.2-17.2-3.2
				c-4.8,0-9.1,0.5-12.9,1.5c-3.8,1-7.4,2.5-10.6,4.4c-3.3,1.9-6.4,4.2-9.3,7c-3,2.8-5.9,6-8.6,9.5c-1.2,1.5-3.2,2.1-5,1.5
				c-1.8-0.6-3.1-2.3-3.2-4.2l-0.7-16.5h-20.5v132.8h24.9v-85.3c0-1,0.3-1.9,0.9-2.7c6-8.2,11.9-14.9,17.4-19.7
				c6.1-5.4,12.7-8.1,19.6-8.1c8.2,0,21.9,3.6,21.9,27.9V356.7z"/>
		</g>
	</g>
	<g>
		<g>
			<path fill="#FFFFFF" stroke="#FFFFFF" stroke-miterlimit="10" d="M445.9,289.2c0,11.2-1.6,21.4-4.8,30.7
				c-3.2,9.3-7.7,17.2-13.7,23.8c-6,6.6-13.3,11.7-21.9,15.4c-8.7,3.6-18.5,5.5-29.6,5.5c-10.5,0-19.9-1.5-28.2-4.6
				c-8.3-3.1-15.3-7.7-21.1-13.8c-5.8-6.1-10.2-13.7-13.3-22.9c-3.1-9.2-4.6-19.9-4.6-32.1c0-11.3,1.6-21.5,4.8-30.7
				c3.2-9.2,7.8-17.1,13.8-23.6c6-6.5,13.3-11.6,22-15.2c8.7-3.6,18.4-5.4,29.4-5.4c10.6,0,20.1,1.6,28.4,4.7
				c8.3,3.1,15.3,7.8,21.1,13.9c5.8,6.1,10.2,13.8,13.2,22.9C444.3,266.8,445.9,277.3,445.9,289.2z M410.4,290.1
				c0-14.7-2.8-25.8-8.3-33.2c-5.5-7.4-13.7-11.1-24.5-11.1c-6,0-11,1.2-15.2,3.5c-4.2,2.3-7.6,5.5-10.3,9.6
				c-2.7,4.1-4.7,8.8-5.9,14.2c-1.3,5.4-1.9,11.2-1.9,17.3c0,14.8,3,26,8.9,33.5c6,7.5,14.1,11.3,24.5,11.3c5.7,0,10.6-1.1,14.8-3.4
				c4.2-2.3,7.6-5.5,10.2-9.5c2.6-4.1,4.6-8.8,5.9-14.3C409.7,302.3,410.4,296.4,410.4,290.1z"/>
			<path fill="#FFFFFF" stroke="#FFFFFF" stroke-miterlimit="10" d="M375.8,369.1c-11,0-21.1-1.6-29.8-4.9
				c-8.9-3.3-16.6-8.3-22.8-14.9c-6.2-6.6-11-14.8-14.3-24.6c-3.2-9.6-4.9-20.9-4.9-33.5c0-11.7,1.7-22.6,5.1-32.3
				c3.4-9.8,8.4-18.3,14.8-25.2c6.4-7,14.4-12.5,23.6-16.3c9.2-3.8,19.7-5.7,31.1-5.7c11.1,0,21.2,1.7,30,5
				c8.9,3.4,16.6,8.4,22.8,15.1c6.2,6.6,11,14.9,14.2,24.5c3.2,9.5,4.8,20.6,4.8,33c0,11.6-1.7,22.5-5,32.2
				c-3.4,9.8-8.3,18.4-14.6,25.4c-6.4,7.1-14.3,12.7-23.6,16.5C398,367.2,387.5,369.1,375.8,369.1z M378.6,220.9
				c-10.2,0-19.5,1.7-27.6,5c-8,3.3-14.9,8-20.4,14c-5.6,6-9.9,13.4-12.9,22c-3,8.7-4.6,18.5-4.6,29.2c0,11.7,1.5,21.9,4.4,30.6
				c2.8,8.5,7,15.6,12.3,21.2c5.3,5.6,11.8,9.8,19.4,12.6c7.7,2.9,16.7,4.3,26.6,4.3c10.4,0,19.8-1.7,27.8-5.1
				c8-3.4,14.8-8.1,20.3-14.2c5.5-6.1,9.8-13.6,12.8-22.2c3-8.8,4.5-18.6,4.5-29.2c0-11.4-1.4-21.5-4.3-30.1
				c-2.8-8.4-6.9-15.5-12.2-21.2c-5.3-5.6-11.8-9.9-19.4-12.8C397.6,222.3,388.6,220.9,378.6,220.9z M377.5,339.7
				c-11.8,0-21.2-4.4-28.1-13c-6.6-8.3-9.9-20.5-9.9-36.3c0-6.5,0.7-12.7,2-18.4c1.4-5.9,3.6-11.2,6.6-15.7c3.1-4.6,7.1-8.4,11.9-11
				c4.9-2.7,10.7-4.1,17.5-4.1c12.3,0,21.8,4.4,28.2,13c6.1,8.2,9.2,20.3,9.2,36c0,6.7-0.7,13-2.1,18.8c-1.4,6-3.6,11.3-6.5,15.8
				c-3,4.7-7,8.4-11.9,11.1C389.7,338.3,383.9,339.7,377.5,339.7z M377.5,250.4c-5.1,0-9.5,1-13,2.9c-3.6,2-6.4,4.6-8.7,8.1
				c-2.4,3.6-4.2,7.8-5.3,12.7c-1.2,5-1.8,10.5-1.8,16.3c0,13.7,2.7,24,7.9,30.6c5.1,6.4,11.9,9.5,20.9,9.5c4.9,0,9.1-1,12.6-2.9
				c3.5-1.9,6.3-4.5,8.5-8c2.3-3.6,4.1-7.9,5.3-12.9c1.2-5.1,1.8-10.7,1.8-16.7c0-13.6-2.5-23.9-7.4-30.4
				C393.7,253.4,386.9,250.4,377.5,250.4z"/>
		</g>
	</g>
	<g>
		<g>
			<path fill="#FFFFFF" stroke="#FFFFFF" stroke-miterlimit="10" d="M516,361.3h-39.3l-56.3-142h38l29.5,80.5l8.8,26l8.7-24.9
				l29.8-81.6h36.6L516,361.3z"/>
			<path fill="#FFFFFF" stroke="#FFFFFF" stroke-miterlimit="10" d="M516,365.9h-39.3c-1.9,0-3.6-1.2-4.3-2.9l-56.3-142
				c-0.6-1.4-0.4-3,0.5-4.3c0.9-1.3,2.3-2,3.8-2h38c1.9,0,3.7,1.2,4.3,3l29.5,80.5c0,0,0,0.1,0,0.1l4.5,13.3l4.3-12.2l29.8-81.7
				c0.7-1.8,2.4-3,4.3-3h36.6c1.5,0,2.9,0.8,3.8,2c0.9,1.3,1,2.9,0.5,4.3l-55.8,142C519.6,364.8,517.9,365.9,516,365.9z
				 M479.9,356.7h33l52.1-132.8h-26.6l-28.7,78.6l-8.6,24.8c-0.6,1.9-2.4,3.1-4.3,3.1c0,0,0,0,0,0c-2,0-3.7-1.3-4.3-3.1l-8.8-25.9
				l-28.4-77.4h-28L479.9,356.7z"/>
		</g>
	</g>
	<g>
		<g>
			<path fill="#FFFFFF" stroke="#FFFFFF" stroke-miterlimit="10" d="M640.7,361.3l-0.8-18.6c-3,3.2-6.1,6.1-9.4,8.7
				c-3.3,2.7-6.8,5-10.8,6.9c-3.9,2-8.2,3.5-12.8,4.5c-4.6,1.1-9.7,1.6-15.2,1.6c-7.3,0-13.7-1.1-19.1-3.2
				c-5.5-2.1-10.1-5.1-13.8-8.9c-3.7-3.8-6.5-8.4-8.5-13.8c-1.9-5.4-2.9-11.4-2.9-17.9c0-6.7,1.4-12.9,4.3-18.6
				c2.8-5.7,7.2-10.6,13-14.7c5.8-4.1,13.1-7.3,21.8-9.6c8.7-2.3,18.9-3.5,30.7-3.5h18.6v-8.5c0-3.6-0.5-6.9-1.5-9.9
				c-1-2.9-2.7-5.4-5-7.5c-2.3-2-5.2-3.6-8.9-4.8s-8.1-1.7-13.4-1.7c-8.4,0-16.7,1-24.8,2.9c-8.2,1.9-16.1,4.6-23.7,8v-27.3
				c6.8-2.7,14.7-4.9,23.6-6.7c8.9-1.8,18.1-2.7,27.7-2.7c10.5,0,19.6,1,27.1,3c7.5,2,13.8,5,18.7,9c4.9,4,8.5,9,10.8,15
				c2.3,6,3.5,13,3.5,21v97H640.7z M635.8,298.6H615c-5.8,0-10.7,0.6-14.7,1.7c-4,1.1-7.3,2.7-9.8,4.6c-2.5,2-4.4,4.2-5.5,6.8
				c-1.2,2.6-1.7,5.3-1.7,8.2c0,5.8,1.9,10.2,5.6,13.2c3.7,3,8.8,4.5,15.2,4.5c4.8,0,9.7-1.7,14.8-5.2c5.1-3.4,10.8-8.4,16.9-14.8
				V298.6z"/>
			<path fill="#FFFFFF" stroke="#FFFFFF" stroke-miterlimit="10" d="M591.8,369.1c-7.8,0-14.8-1.2-20.8-3.5
				c-6.1-2.4-11.3-5.7-15.5-10c-4.2-4.3-7.4-9.5-9.5-15.5c-2.1-5.9-3.1-12.4-3.1-19.4c0-7.4,1.6-14.3,4.7-20.6
				c3.2-6.3,8-11.9,14.5-16.4c6.2-4.4,14.1-7.9,23.3-10.3c9.1-2.4,19.8-3.7,31.9-3.7h14v-3.9c0-3.1-0.4-5.9-1.3-8.3
				c-0.8-2.2-2-4-3.7-5.6c-1.8-1.6-4.2-2.9-7.2-3.8c-3.2-1-7.2-1.5-12.1-1.5c-8,0-16,0.9-23.8,2.7c-7.8,1.8-15.5,4.4-22.8,7.7
				c-1.4,0.6-3.1,0.5-4.4-0.3c-1.3-0.8-2.1-2.3-2.1-3.9v-27.3c0-1.9,1.2-3.6,2.9-4.3c7-2.8,15.2-5.1,24.4-6.9
				c9.2-1.8,18.8-2.7,28.6-2.7c10.9,0,20.4,1.1,28.3,3.2c8.2,2.2,15,5.5,20.4,9.9c5.5,4.5,9.6,10.2,12.2,16.9
				c2.5,6.5,3.8,14.2,3.8,22.7v97c0,2.5-2.1,4.6-4.6,4.6h-29.2c-2.5,0-4.5-1.9-4.6-4.4l-0.4-8.4c-0.8,0.7-1.5,1.3-2.3,1.9
				c-3.5,2.9-7.4,5.4-11.6,7.5c-4.2,2.1-8.9,3.8-13.8,4.9C603,368.6,597.6,369.1,591.8,369.1z M617.2,278.9
				c-11.3,0-21.2,1.1-29.5,3.3c-8.1,2.2-15,5.2-20.3,9c-5.2,3.6-9,8-11.5,13c-2.5,5-3.8,10.6-3.8,16.5c0,6,0.9,11.5,2.6,16.4
				c1.7,4.7,4.2,8.8,7.4,12.2c3.2,3.3,7.4,6,12.2,7.9c4.9,1.9,10.8,2.9,17.5,2.9c5.1,0,9.9-0.5,14.1-1.5c4.2-1,8.2-2.4,11.8-4.2
				c3.6-1.8,6.9-3.9,9.9-6.4c3.1-2.5,6.1-5.3,8.9-8.3c1.3-1.3,3.2-1.8,5-1.2c1.7,0.6,2.9,2.3,3,4.1l0.6,14.2h20.2v-92.4
				c0-7.4-1.1-13.9-3.2-19.4c-2.1-5.3-5.1-9.6-9.5-13.1c-4.4-3.6-10-6.3-16.9-8.1c-7.1-1.9-15.9-2.9-25.9-2.9
				c-9.2,0-18.3,0.9-26.8,2.6c-7.3,1.5-14,3.3-19.8,5.4v17.1c5.9-2.3,11.9-4.2,18-5.6c8.5-2,17.2-3,25.9-3c5.7,0,10.7,0.6,14.8,1.9
				c4.3,1.3,7.8,3.2,10.6,5.7c2.9,2.6,5,5.7,6.2,9.4c1.2,3.4,1.8,7.2,1.8,11.4v8.5c0,2.5-2.1,4.6-4.6,4.6H617.2z M604.1,342.2
				c-7.5,0-13.6-1.9-18.1-5.6c-4.8-3.9-7.3-9.6-7.3-16.8c0-3.5,0.7-6.9,2.2-10.1c1.5-3.2,3.8-6.1,6.9-8.5c3-2.3,6.8-4.1,11.4-5.4
				c4.4-1.2,9.7-1.8,15.9-1.8h20.8c2.5,0,4.6,2.1,4.6,4.6v19c0,1.2-0.5,2.3-1.3,3.2c-6.3,6.6-12.3,11.8-17.7,15.5
				C615.6,340.2,609.7,342.2,604.1,342.2z M615,303.2c-5.3,0-9.9,0.5-13.4,1.5c-3.4,1-6.2,2.2-8.2,3.8c-1.9,1.5-3.3,3.2-4.2,5
				c-0.9,2-1.3,4-1.3,6.3c0,4.4,1.3,7.5,3.9,9.6c2.9,2.3,7,3.5,12.3,3.5c3.8,0,7.9-1.5,12.2-4.4c4.5-3,9.5-7.3,14.9-12.9v-12.5H615z
				"/>
		</g>
	</g>
</g>
<g id="logo-logo" fill="url(#lg)">
	<g>
		<path d="M90.7,248.1c-12.2,0-24.2-2.1-35.6-6.3c-7.4-2.7-11.2-10.9-8.5-18.3c2.7-7.4,10.9-11.2,18.3-8.5
			c8.2,3,16.9,4.5,25.8,4.5c41.4,0,75-33.7,75-75c0-41.4-33.7-75-75-75c-14.3,0-28.2,4-40.1,11.6c-6.7,4.2-15.5,2.3-19.7-4.4
			c-4.2-6.7-2.3-15.5,4.4-19.7C51.8,46.5,71,40.9,90.7,40.9c57.1,0,103.6,46.5,103.6,103.6S147.8,248.1,90.7,248.1z"/>
	</g>
	<g>
		<path d="M202.9,361.4H60c-7.9,0-14.3-6.4-14.3-14.3s6.4-14.3,14.3-14.3H157L30.1,75.4c-3.5-7.1-0.6-15.6,6.5-19.1
			c7.1-3.5,15.6-0.6,19.1,6.5L202.9,361.4z"/>
	</g>
</g>
<g id="logo-felirat" fill="url(#lg)">
	<path d="M273.6,143.2c0.1-3.9-0.1-7.1-0.6-9.8c-0.5-2.7-1.3-4.9-2.4-6.7c-1.1-1.8-2.5-3-4.1-3.9s-3.5-1.2-5.6-1.2
		c-3.7,0-7.4,1.5-11.3,4.5c-3.9,3-8.2,8-12.8,14.9v65.3h-25.4V103.1h22.4l0.9,15c1.7-2.6,3.6-5,5.7-7.1c2.1-2.1,4.5-3.9,7.1-5.4
		c2.6-1.5,5.5-2.7,8.7-3.5c3.2-0.8,6.7-1.2,10.5-1.2c5.2,0,9.8,0.9,13.9,2.7c4,1.8,7.4,4.5,10.2,8c2.7,3.5,4.8,7.9,6.1,13.3
		c1.3,5.3,1.9,11.5,1.7,18.4H273.6z"/>
	<path d="M364.5,146.7c0,1.7-0.1,3.9-0.2,6.6c-0.1,2.7-0.3,5.2-0.5,7.6H296c0,4.5,0.7,8.5,2.1,12
		c1.4,3.5,3.4,6.3,5.9,8.7s5.6,4.1,9.1,5.3s7.5,1.8,11.8,1.8c5,0,10.4-0.4,16.1-1.2c5.7-0.8,11.7-2,17.8-3.8v19.7
		c-2.6,0.7-5.5,1.4-8.6,2c-3.1,0.6-6.3,1.2-9.5,1.6c-3.2,0.5-6.5,0.8-9.8,1.1c-3.3,0.2-6.5,0.4-9.6,0.4c-7.9,0-14.9-1.1-21.1-3.4
		c-6.2-2.2-11.5-5.5-15.8-9.9c-4.3-4.4-7.6-9.8-10-16.2c-2.3-6.4-3.5-13.9-3.5-22.3c0-8.4,1.2-16,3.5-22.9
		c2.3-6.9,5.5-12.8,9.7-17.7c4.2-4.9,9.3-8.7,15.3-11.4c6-2.7,12.7-4,20.1-4c7.3,0,13.8,1.1,19.4,3.4c5.6,2.3,10.3,5.4,14.1,9.5
		c3.8,4.1,6.7,8.9,8.6,14.5C363.5,133.9,364.5,140,364.5,146.7z M339.3,143.2c0.1-4.1-0.4-7.6-1.5-10.6c-1.1-3-2.6-5.5-4.4-7.5
		c-1.9-2-4-3.4-6.5-4.4c-2.5-0.9-5.1-1.4-8-1.4c-6.2,0-11.3,2.1-15.3,6.2c-4,4.2-6.4,10-7.1,17.6H339.3z"/>
	<path d="M410.8,206.2V139c0-11.3-4.2-17-12.6-17c-4.2,0-8.2,1.7-12,5.1c-3.8,3.4-7.9,8-12.1,13.8v65.3h-24.8V103.1
		h21.4l0.6,15.2c2.1-2.6,4.3-5,6.5-7.2c2.3-2.2,4.7-4,7.4-5.5s5.5-2.7,8.5-3.5c3-0.8,6.5-1.2,10.3-1.2c5.3,0,9.9,0.9,13.8,2.6
		c3.9,1.7,7.2,4.2,9.8,7.3c2.6,3.1,4.6,6.9,5.9,11.4c1.3,4.4,2,9.4,2,14.9v69.2H410.8z"/>
	<path d="M518.8,153.8c0,8.1-1.2,15.6-3.5,22.3c-2.3,6.7-5.6,12.5-10,17.3c-4.3,4.8-9.6,8.5-15.9,11.2
		c-6.3,2.6-13.5,4-21.5,4c-7.6,0-14.5-1.1-20.5-3.4c-6-2.2-11.1-5.6-15.3-10c-4.2-4.4-7.4-10-9.6-16.7c-2.2-6.7-3.4-14.4-3.4-23.3
		c0-8.2,1.2-15.6,3.5-22.3c2.3-6.7,5.7-12.4,10.1-17.2c4.4-4.7,9.7-8.4,16-11c6.3-2.6,13.4-3.9,21.3-3.9c7.7,0,14.6,1.1,20.6,3.4
		c6,2.3,11.1,5.6,15.3,10.1c4.2,4.5,7.4,10,9.6,16.6C517.7,137.5,518.8,145.2,518.8,153.8z M493,154.4c0-10.7-2-18.7-6-24.1
		c-4-5.4-10-8.1-17.8-8.1c-4.3,0-8,0.8-11.1,2.5c-3,1.7-5.6,4-7.5,7c-2,2.9-3.4,6.4-4.3,10.3c-0.9,3.9-1.4,8.1-1.4,12.6
		c0,10.8,2.2,18.9,6.5,24.3c4.3,5.4,10.3,8.2,17.8,8.2c4.1,0,7.7-0.8,10.8-2.5c3-1.7,5.5-4,7.4-6.9c1.9-2.9,3.3-6.4,4.3-10.4
		C492.5,163.3,493,159,493,154.4z"/>
	<path d="M519.2,82H490V62.8h54.5v124.2h29.7v19.3h-87.8v-19.3h32.7V82z"/>
	<path d="M561.3,122.4h-29.1v-19.3h54.5v83.9h29.7v19.3h-87.8v-19.3h32.7V122.4z M588.8,74.8c0,2.2-0.4,4.3-1.2,6.3
		c-0.8,2-1.9,3.7-3.4,5.1c-1.5,1.5-3.2,2.6-5.1,3.5c-2,0.8-4.1,1.3-6.4,1.3c-2.3,0-4.5-0.4-6.4-1.3c-2-0.8-3.7-2-5.2-3.5
		c-1.5-1.5-2.6-3.2-3.4-5.1c-0.8-2-1.2-4.1-1.2-6.3s0.4-4.3,1.2-6.3c0.8-2,1.9-3.7,3.4-5.2c1.5-1.5,3.2-2.7,5.2-3.5
		c2-0.8,4.1-1.3,6.4-1.3c2.3,0,4.4,0.4,6.4,1.3c2,0.8,3.7,2,5.1,3.5c1.5,1.5,2.6,3.2,3.4,5.2C588.4,70.5,588.8,72.6,588.8,74.8z"/>
	<path d="M668.2,205.2c-4.5,1-9,1.8-13.5,2.4c-4.5,0.6-8.8,0.9-12.9,0.9c-6.8,0-12.6-0.7-17.5-2.1
		c-4.9-1.4-9-3.6-12.2-6.5c-3.2-2.9-5.6-6.6-7.1-11.1c-1.5-4.5-2.3-9.9-2.3-16.1v-50.4H575v-19.3h27.7V76.7l25.4-6.6v33h40.1v19.3
		h-40.1v48.5c0,5.9,1.4,10.3,4.1,13.4c2.7,3,7.2,4.5,13.6,4.5c4.1,0,8-0.3,11.9-1c3.9-0.7,7.4-1.5,10.6-2.3V205.2z"/>
	<path d="M296,361.3v-92.5c0-15.6-5.8-23.3-17.3-23.3c-5.8,0-11.3,2.3-16.6,7c-5.3,4.7-10.8,11-16.7,19v89.9h-34.1
		v-142h29.5l0.8,21c2.9-3.6,5.9-6.9,9-9.9c3.1-3,6.5-5.5,10.1-7.6c3.6-2.1,7.5-3.7,11.7-4.8c4.2-1.1,8.9-1.7,14.1-1.7
		c7.3,0,13.6,1.2,19,3.6c5.4,2.4,9.9,5.7,13.6,10.1c3.6,4.3,6.4,9.6,8.2,15.7c1.8,6.1,2.7,12.9,2.7,20.5v95.3H296z"/>
	<path d="M445.9,289.2c0,11.2-1.6,21.4-4.8,30.7c-3.2,9.3-7.7,17.2-13.7,23.8c-6,6.6-13.3,11.7-21.9,15.4
		c-8.7,3.6-18.5,5.5-29.6,5.5c-10.5,0-19.9-1.5-28.2-4.6c-8.3-3.1-15.3-7.7-21.1-13.8c-5.8-6.1-10.2-13.7-13.3-22.9
		c-3.1-9.2-4.6-19.9-4.6-32.1c0-11.3,1.6-21.5,4.8-30.7c3.2-9.2,7.8-17.1,13.8-23.6c6-6.5,13.3-11.6,22-15.2
		c8.7-3.6,18.4-5.4,29.4-5.4c10.6,0,20.1,1.6,28.4,4.7c8.3,3.1,15.3,7.8,21.1,13.9c5.8,6.1,10.2,13.8,13.2,22.9
		C444.3,266.8,445.9,277.3,445.9,289.2z M410.4,290.1c0-14.7-2.8-25.8-8.3-33.2c-5.5-7.4-13.7-11.1-24.5-11.1c-6,0-11,1.2-15.2,3.5
		c-4.2,2.3-7.6,5.5-10.3,9.6c-2.7,4.1-4.7,8.8-5.9,14.2c-1.3,5.4-1.9,11.2-1.9,17.3c0,14.8,3,26,8.9,33.5c6,7.5,14.1,11.3,24.5,11.3
		c5.7,0,10.6-1.1,14.8-3.4c4.2-2.3,7.6-5.5,10.2-9.5c2.6-4.1,4.6-8.8,5.9-14.3C409.7,302.3,410.4,296.4,410.4,290.1z"/>
	<path d="M516,361.3h-39.3l-56.3-142h38l29.5,80.5l8.8,26l8.7-24.9l29.8-81.6h36.6L516,361.3z"/>
	<path d="M640.7,361.3l-0.8-18.6c-3,3.2-6.1,6.1-9.4,8.7c-3.3,2.7-6.8,5-10.8,6.9c-3.9,2-8.2,3.5-12.8,4.5
		c-4.6,1.1-9.7,1.6-15.2,1.6c-7.3,0-13.7-1.1-19.1-3.2c-5.5-2.1-10.1-5.1-13.8-8.9c-3.7-3.8-6.5-8.4-8.5-13.8
		c-1.9-5.4-2.9-11.4-2.9-17.9c0-6.7,1.4-12.9,4.3-18.6c2.8-5.7,7.2-10.6,13-14.7c5.8-4.1,13.1-7.3,21.8-9.6
		c8.7-2.3,18.9-3.5,30.7-3.5h18.6v-8.5c0-3.6-0.5-6.9-1.5-9.9c-1-2.9-2.7-5.4-5-7.5c-2.3-2-5.2-3.6-8.9-4.8s-8.1-1.7-13.4-1.7
		c-8.4,0-16.7,1-24.8,2.9c-8.2,1.9-16.1,4.6-23.7,8v-27.3c6.8-2.7,14.7-4.9,23.6-6.7c8.9-1.8,18.1-2.7,27.7-2.7
		c10.5,0,19.6,1,27.1,3c7.5,2,13.8,5,18.7,9c4.9,4,8.5,9,10.8,15c2.3,6,3.5,13,3.5,21v97H640.7z M635.8,298.6H615
		c-5.8,0-10.7,0.6-14.7,1.7c-4,1.1-7.3,2.7-9.8,4.6c-2.5,2-4.4,4.2-5.5,6.8c-1.2,2.6-1.7,5.3-1.7,8.2c0,5.8,1.9,10.2,5.6,13.2
		c3.7,3,8.8,4.5,15.2,4.5c4.8,0,9.7-1.7,14.8-5.2c5.1-3.4,10.8-8.4,16.9-14.8V298.6z"/>
</g>
</svg>
